<?xml version="1.0" standalone="no"?>
<!DOCTYPE svg PUBLIC "-//W3C//DTD SVG 20010904//EN"
 "http://www.w3.org/TR/2001/REC-SVG-20010904/DTD/svg10.dtd">
<svg version="1.0" xmlns="http://www.w3.org/2000/svg"
 width="935.000000pt" height="935.000000pt" viewBox="0 0 935.000000 935.000000"
 preserveAspectRatio="xMidYMid meet">
<metadata>
Created by potrace 1.11, written by Peter Selinger 2001-2013
</metadata>
<g transform="translate(0.000000,935.000000) scale(0.100000,-0.100000)"
fill="#000000" stroke="none">
<path d="M4445 9339 c-290 -22 -512 -72 -735 -166 -406 -173 -703 -410 -973
-779 -81 -111 -209 -323 -201 -335 3 -5 1 -9 -4 -9 -6 0 -36 -61 -67 -135 -31
-74 -63 -139 -69 -144 -7 -6 -93 -20 -191 -31 -98 -11 -181 -22 -183 -25 -2
-2 1 -76 7 -165 12 -177 16 -191 88 -278 43 -54 47 -64 44 -137 -3 -96 -100
-402 -180 -570 -67 -141 -136 -262 -295 -515 -462 -739 -881 -1469 -1074
-1870 -213 -444 -266 -626 -215 -742 40 -90 123 -108 316 -68 121 25 199 57
474 196 l222 113 7 -34 c3 -18 3 -126 0 -238 -5 -160 -3 -206 6 -210 10 -4 10
-6 0 -6 -7 -1 -11 -5 -7 -11 3 -5 8 -73 10 -151 3 -77 7 -144 10 -148 2 -5 7
-37 10 -72 10 -113 56 -369 92 -514 108 -430 309 -792 595 -1070 185 -180 329
-276 637 -427 l204 -100 -122 -63 c-187 -97 -252 -162 -221 -219 27 -52 105
-77 310 -100 171 -20 181 -25 231 -104 50 -79 122 -153 177 -181 90 -46 157
-37 324 44 53 26 106 45 125 45 18 0 61 -14 94 -30 166 -84 299 -72 398 35 71
77 66 119 -29 264 -33 51 -60 94 -60 97 0 3 91 2 203 -1 111 -3 316 -7 455
-10 140 -2 256 -6 259 -8 2 -3 -21 -47 -51 -98 -81 -136 -84 -168 -18 -241 43
-47 110 -84 173 -93 57 -8 145 13 228 55 33 16 75 30 92 30 18 0 75 -20 128
-44 120 -55 183 -76 225 -76 77 0 198 91 270 204 57 89 63 92 236 112 149 17
212 30 263 56 111 56 55 144 -170 264 -56 31 -105 59 -107 62 -2 4 61 36 142
72 179 78 298 143 421 228 364 252 625 593 794 1037 121 318 171 653 197 1317
6 139 13 265 16 280 l6 26 220 -108 c311 -154 405 -187 575 -197 83 -5 95 -4
128 17 107 66 99 221 -27 527 -54 133 -254 543 -333 683 -26 47 -61 110 -77
140 -122 223 -354 614 -680 1145 -404 660 -431 717 -564 1178 -42 147 -42 170
-2 233 62 98 70 128 77 278 7 153 3 166 -48 166 -37 0 -197 28 -240 41 -29 10
-38 22 -68 88 -61 136 -170 346 -223 432 -258 414 -578 695 -997 875 -228 98
-338 128 -575 159 -251 33 -467 40 -683 24z"/>
</g>
</svg>
